<?xml version="1.0" encoding="utf-8"?>
<!-- Generator: Adobe Illustrator 19.0.0, SVG Export Plug-In . SVG Version: 6.00 Build 0)  -->
<svg version="1.1" id="Layer_1" xmlns="http://www.w3.org/2000/svg" xmlns:xlink="http://www.w3.org/1999/xlink" x="0px" y="0px"
	 viewBox="0 0 552.5 215.2" style="enable-background:new 0 0 552.5 215.2;" xml:space="preserve">
<style type="text/css">
	.st0{fill:#EC008C;}
</style>
<g>
	<path class="st0" d="M264.1,193.5h2.1c2.6,0,3.5-2,3.5-4c0-2-1.1-3.6-3.5-3.6h-2.1V193.5z M258.5,185.7v-3.2h7.7
		c5.1,0,7.6,3.1,7.6,7.1c0,4-2.4,7.4-7.6,7.4h-7.7v-3.2h1.6v-8H258.5z"/>
	<path class="st0" d="M291.2,185.7c-2.3,0-3.9,1.7-3.9,4.1c0,2.4,1.6,4.1,3.9,4.1c2.4,0,3.9-1.7,3.9-4.1
		C295.1,187.2,293.6,185.7,291.2,185.7 M291.2,197.3c-4.7,0-8-2.7-8-7.6c0-4.7,3.3-7.5,8-7.5c4.7,0,8,2.8,8,7.5
		C299.2,194.5,296,197.3,291.2,197.3"/>
	<path class="st0" d="M316.6,185.4c-2.3,0-4,1.4-4,4.3c0,2.7,1.9,4.2,4,4.2c0.9,0,1.8-0.2,2.6-0.8v-1.3h-3.6V189h7v5.5
		c-0.9,1.8-3.4,2.9-6.2,2.9c-4.7,0-7.9-2.7-7.9-7.6c0-4.8,3.5-7.7,8-7.7c2.4,0,4.1,0.6,5.7,2.3l0,3.4h-3.4l-0.1-1.8
		C318.1,185.5,317.3,185.4,316.6,185.4"/>
	<polygon class="st0" points="344.2,182.5 344.2,188.1 347.7,188.1 347.8,186 349.1,186 349.1,193.7 347.4,193.7 347.4,196.9 
		354.9,196.9 354.9,193.7 353.2,193.7 353.2,186 354.5,186 354.6,188.1 358.1,188.1 358.1,182.5 	"/>
	<path class="st0" d="M373.4,185.8v3.5h3c1,0,1.5-0.8,1.5-1.7c0-0.9-0.5-1.7-1.6-1.7H373.4z M369.4,185.7h-1.7v-3.2h8.8
		c3.7,0,5.6,2.4,5.6,5c0,1.7-0.6,3.2-2.8,4.2l1.5,2h1.9v3.2h-5.8v-2.1l-1.8-2.6h-1.6v1.6l1.6,0.1v2.9h-7.4v-3.2h1.7V185.7z"/>
	<path class="st0" d="M400.6,186l1.4,3.5h-2.7L400.6,186z M395.3,182.5v3.2h1.6l-3.6,8h-1.6v3.2h7.2V194l-1.4-0.1l0.5-1.3h5.1
		l0.5,1.3l-1.3,0.1v2.9h7.2v-3.2h-1.6l-5-11.2H395.3z"/>
	<polygon class="st0" points="418.7,182.5 418.7,185.7 420.4,185.7 420.4,193.7 418.7,193.7 418.7,196.9 426.2,196.9 426.2,193.7 
		424.5,193.7 424.5,185.7 426.2,185.7 426.2,182.5 	"/>
	<path class="st0" d="M447.5,190.4c-0.1-1.7-0.1-2.4-0.1-2.9v-1.7h-1.4v-3.2h7.2v3.2h-1.7v11.2H448l-6-7.8l0.1,3.1v1.4h1.4v3.2h-7.2
		v-3.2h1.7v-8h-1.7v-3.2h5.2L447.5,190.4z"/>
	<polygon class="st0" points="463,182.5 463,185.7 464.7,185.7 464.7,193.7 463,193.7 463,196.9 470.5,196.9 470.5,193.7 
		468.7,193.7 468.7,185.7 470.5,185.7 470.5,182.5 	"/>
	<path class="st0" d="M491.7,190.4c-0.1-1.7-0.1-2.4-0.1-2.9v-1.7h-1.4v-3.2h7.2v3.2h-1.7v11.2h-3.5l-6-7.8l0.1,3.1v1.4h1.4v3.2
		h-7.2v-3.2h1.7v-8h-1.7v-3.2h5.2L491.7,190.4z"/>
	<path class="st0" d="M514.6,185.4c-2.3,0-4,1.4-4,4.3c0,2.7,1.9,4.2,4,4.2c0.9,0,1.8-0.2,2.6-0.8v-1.3h-3.6V189h7v5.5
		c-0.9,1.8-3.4,2.9-6.2,2.9c-4.7,0-7.9-2.7-7.9-7.6c0-4.8,3.5-7.7,8-7.7c2.4,0,4.1,0.6,5.7,2.3l0,3.4h-3.4l-0.1-1.8
		C516,185.5,515.2,185.4,514.6,185.4"/>
</g>
<g>
	<path class="st0" d="M330.9,117.2h-11.8v-13.5h11.6c4.3,0,6.2,3.1,6.2,6.8C336.9,114.1,334.8,117.2,330.9,117.2 M341.7,126.9
		c8.7-4.1,11-9.8,11-16.5c0-10.2-7.5-19.4-21.9-19.4H312h-15.6h-32.7v12.5h6.8v19.1c0,8.6-4.3,12.5-10.7,12.5
		c-6.6,0-10.9-3.8-10.9-12.7v-18.9h6.8V91h-29.2v12.5h6.5v18.9c0,17.3,10,26.3,26.7,26.3c16.5,0,26.7-9.4,26.5-26.1v-19.1h10.2h6.8
		v31.4h-6.8v12.6h28.9v-11.3l-6.3-0.5v-6.5h6.2l7,10.1v8.1H355v-12.6h-7.3L341.7,126.9z"/>
	<path class="st0" d="M442.5,118.1l5.2-13.6l5.3,13.6H442.5z M524.4,91v12.7h5.5v6.7c0.2,2.2,0.2,4.8,0.5,11.5L506.5,91h-20.2v12.7
		h6.7v31.2h-10.4h-4.6h-1.6L456.8,91h-29.8v12.5h6.4l-14,31.3c-1,5.5-4.2,9.8-9.1,12.6h31.1V136l-5.3-0.4l1.8-5h20l1.8,4.9l-5,0.5
		v11.4h23.4h4.6h32.1v-12.6h-5.5v-5.6l-0.2-12.3l23.5,30.4H546v-43.8h6.5V91H524.4z"/>
	<path class="st0" d="M394,135.2h-13.5v-11.4H394c3.4,0,6,2,6,5.7C400,132.4,398.1,135.2,394,135.2 M380.5,103.5h13
		c3.1,0,4.9,2.3,4.9,4.7c0,3.1-2.6,4.6-5.2,4.6h-12.7V103.5z M415.5,134.8c0.3-1.2,0.5-2.6,0.5-4c0-5.1-2.6-10.4-7.8-13.2
		c4.9-2.2,6.3-6.6,6.3-10.9c0-10.8-9.3-15.7-20.6-15.7h-35v12.5h6.1v31.4h-6.1v12.6h35.1c3.5,0,7.2-0.5,10.5-1.6
		C409.7,144,414.1,140.7,415.5,134.8"/>
</g>
<path class="st0" d="M108.9,24.2c1.7-2.5,2.6-5.5,2.6-8.7c0-8.6-7-15.6-15.6-15.6c-8.6,0-15.6,7-15.6,15.6c0,3.2,1,6.2,2.6,8.7
	c-46.9,6.3-83,46.5-83,95c0,53,42.9,95.9,95.9,95.9c53,0,95.9-42.9,95.9-95.9C191.8,70.7,155.7,30.5,108.9,24.2z M24.1,71.4
	c0.7-1,2-1.2,2.9-0.6c1,0.6,1.2,2,0.6,2.9c-0.4,0.6-1.1,0.9-1.8,0.9c-0.4,0-0.8-0.1-1.2-0.4C23.7,73.7,23.5,72.4,24.1,71.4z
	 M19.8,78.7c0.5-1,1.8-1.4,2.8-0.9c1,0.6,1.4,1.8,0.9,2.9c-0.4,0.7-1.1,1.1-1.8,1.1c-0.3,0-0.7-0.1-1-0.3
	C19.6,81,19.2,79.7,19.8,78.7z M16.2,86.3c0.4-1.1,1.7-1.6,2.8-1.1c1.1,0.4,1.6,1.7,1.1,2.8c-0.3,0.8-1.1,1.3-1.9,1.3
	c-0.3,0-0.5-0.1-0.8-0.2C16.2,88.6,15.7,87.4,16.2,86.3z M13.3,94.3c0.3-1.1,1.5-1.7,2.6-1.4c1.1,0.3,1.7,1.5,1.4,2.6
	c-0.3,0.9-1.1,1.5-2,1.5c-0.2,0-0.4,0-0.6-0.1C13.6,96.6,13,95.4,13.3,94.3z M11.3,102.5c0.2-1.1,1.3-1.9,2.5-1.7
	c1.1,0.2,1.9,1.3,1.7,2.5c-0.2,1-1.1,1.7-2.1,1.7c-0.1,0-0.3,0-0.4,0C11.8,104.8,11.1,103.7,11.3,102.5z M12.4,109
	c1.1,0.1,2,1.1,1.9,2.3c-0.1,1.1-1,1.9-2.1,1.9c-0.1,0-0.1,0-0.2,0c-1.2-0.1-2-1.1-1.9-2.3C10.2,109.8,11.2,108.9,12.4,109z
	 M11.8,117.3c1.2,0,2.1,0.9,2.1,2.1c0,1.2-0.9,2.1-2.1,2.1c-1.2,0-2.1-0.9-2.1-2.1C9.7,118.2,10.6,117.3,11.8,117.3z M10.1,127.8
	c-0.1-1.2,0.7-2.2,1.9-2.3c1.2-0.1,2.2,0.7,2.3,1.9h0c0.1,1.2-0.7,2.2-1.9,2.3c-0.1,0-0.1,0-0.2,0C11.1,129.7,10.2,128.9,10.1,127.8
	z M11.3,136.2c-0.2-1.1,0.5-2.2,1.6-2.5c1.1-0.2,2.3,0.5,2.5,1.7c0.2,1.1-0.5,2.2-1.7,2.5c-0.1,0-0.3,0-0.4,0
	C12.4,137.9,11.5,137.2,11.3,136.2z M15.4,145.9c-0.9,0-1.7-0.6-2-1.5c-0.3-1.1,0.3-2.3,1.4-2.6c1.1-0.3,2.3,0.3,2.6,1.4
	c0.3,1.1-0.3,2.3-1.4,2.6C15.8,145.9,15.6,145.9,15.4,145.9z M18.2,153.7c-0.8,0-1.6-0.5-1.9-1.3c-0.5-1.1,0.1-2.3,1.1-2.8
	c1.1-0.4,2.3,0.1,2.8,1.1c0.5,1.1-0.1,2.3-1.1,2.8C18.7,153.6,18.4,153.7,18.2,153.7z M22.7,160.9c-0.3,0.2-0.6,0.3-1,0.3
	c-0.8,0-1.5-0.4-1.8-1.1c-0.5-1-0.2-2.3,0.8-2.8c1-0.5,2.3-0.2,2.9,0.9C24.1,159,23.7,160.3,22.7,160.9z M27.1,167.8
	c-0.4,0.2-0.8,0.4-1.2,0.4c-0.7,0-1.4-0.3-1.8-0.9c-0.7-1-0.4-2.3,0.6-2.9c1-0.6,2.3-0.4,2.9,0.6C28.4,165.9,28.1,167.2,27.1,167.8z
	 M181.8,110.6c0.1,1.1-0.7,2.2-1.9,2.3c-0.1,0-0.1,0-0.2,0c-1.1,0-2-0.8-2.1-1.9c-0.1-1.1,0.7-2.2,1.9-2.3
	C180.6,108.6,181.6,109.5,181.8,110.6z M180.5,102.3c0.2,1.1-0.5,2.2-1.6,2.5c-0.1,0-0.3,0-0.4,0c-1,0-1.9-0.7-2.1-1.7
	c-0.2-1.1,0.5-2.3,1.7-2.5C179.2,100.4,180.3,101.1,180.5,102.3z M178.4,94.1c0.3,1.1-0.3,2.3-1.4,2.6c-0.2,0.1-0.4,0.1-0.6,0.1
	c-0.9,0-1.7-0.6-2-1.5c-0.3-1.1,0.3-2.3,1.4-2.6C176.9,92.3,178.1,93,178.4,94.1z M175.6,86.1c0.4,1.1-0.1,2.3-1.1,2.8
	c-0.3,0.1-0.5,0.2-0.8,0.2c-0.8,0-1.6-0.5-2-1.3c-0.4-1.1,0.1-2.3,1.1-2.8C173.9,84.5,175.1,85,175.6,86.1z M169.1,77.6
	c1-0.5,2.3-0.2,2.9,0.9c0.5,1,0.2,2.3-0.9,2.9c-0.3,0.2-0.7,0.3-1,0.3c-0.8,0-1.5-0.4-1.9-1.1C167.7,79.4,168.1,78.1,169.1,77.6z
	 M133.6,44c0.5-1,1.8-1.4,2.8-0.9c1,0.5,1.4,1.8,0.9,2.8c-0.4,0.7-1.1,1.1-1.9,1.1c-0.3,0-0.7-0.1-1-0.3
	C133.5,46.3,133.1,45,133.6,44z M126.1,40.6c0.4-1.1,1.7-1.6,2.8-1.1c1.1,0.4,1.6,1.7,1.1,2.8c-0.3,0.8-1.1,1.3-2,1.3
	c-0.3,0-0.5-0.1-0.8-0.2C126.1,42.9,125.6,41.7,126.1,40.6z M118.2,38.1c0.3-1.1,1.5-1.7,2.6-1.4c1.1,0.3,1.7,1.5,1.4,2.6
	c-0.3,0.9-1.1,1.5-2,1.5c-0.2,0-0.4,0-0.6-0.1C118.5,40.3,117.9,39.2,118.2,38.1z M110.1,36.3c0.2-1.1,1.3-1.9,2.5-1.6
	c1.1,0.2,1.9,1.3,1.7,2.5c-0.2,1-1.1,1.7-2.1,1.7c-0.1,0-0.3,0-0.4,0C110.7,38.5,109.9,37.4,110.1,36.3z M111.9,80.9
	c5,0.9,7.9,7.9,6.5,15.7c-1.4,7.8-6.5,13.3-11.5,12.4c-5-0.9-7.9-7.9-6.5-15.7C101.8,85.5,106.9,80,111.9,80.9z M93.7,35.1
	c0-1.2,0.9-2.1,2.1-2.1s2.1,0.9,2.1,2.1c0,1.2-0.9,2.1-2.1,2.1C94.6,37.2,93.7,36.3,93.7,35.1z M89.6,35.3c0.1,1.1-0.7,2.2-1.9,2.3
	c-0.1,0-0.1,0-0.2,0c-1.1,0-2-0.8-2.1-1.9c-0.1-1.1,0.7-2.2,1.9-2.3C88.5,33.3,89.5,34.2,89.6,35.3z M106.1,35.7
	c-0.1,1.1-1,1.9-2.1,1.9c-0.1,0-0.1,0-0.2,0c-1.2-0.1-2-1.1-1.9-2.3c0.1-1.2,1.1-2,2.3-1.9C105.4,33.5,106.2,34.5,106.1,35.7z
	 M95.9,7.8c4.3,0,7.8,3.5,7.8,7.8c0,4.3-3.5,7.8-7.8,7.8c-4.3,0-7.8-3.5-7.8-7.8C88.1,11.3,91.6,7.8,95.9,7.8z M79,34.7
	c1.1-0.2,2.3,0.5,2.5,1.6c0.2,1.1-0.5,2.3-1.7,2.5c-0.1,0-0.3,0-0.4,0c-1,0-1.9-0.7-2.1-1.7C77.1,36,77.8,34.9,79,34.7z M81,80.9
	c5-0.9,10.1,4.7,11.5,12.4c1.4,7.8-1.5,14.8-6.5,15.7c-5,0.9-10.1-4.7-11.5-12.4C73.2,88.8,76.1,81.7,81,80.9z M70.8,36.7
	c1.1-0.3,2.3,0.3,2.6,1.4c0.3,1.1-0.3,2.3-1.4,2.6c-0.2,0.1-0.4,0.1-0.6,0.1c-0.9,0-1.7-0.6-2-1.5C69,38.2,69.6,37.1,70.8,36.7z
	 M62.8,39.6c1.1-0.4,2.3,0.1,2.7,1.1c0.5,1.1-0.1,2.3-1.1,2.8c-0.3,0.1-0.5,0.2-0.8,0.2c-0.8,0-1.6-0.5-1.9-1.3
	C61.2,41.3,61.7,40,62.8,39.6z M29.2,64.6c0.7-0.9,2.1-1,3-0.3c0.9,0.7,1,2.1,0.3,3c-0.4,0.5-1,0.8-1.6,0.8c-0.5,0-0.9-0.2-1.3-0.5
	C28.6,66.8,28.4,65.5,29.2,64.6z M32.2,174.3c-0.4,0.3-0.9,0.5-1.3,0.5c-0.6,0-1.2-0.3-1.6-0.8c-0.7-0.9-0.6-2.2,0.3-3
	c0.9-0.7,2.2-0.6,3,0.3C33.3,172.3,33.1,173.6,32.2,174.3z M34.8,58.3c0.8-0.8,2.1-0.8,3,0c0.8,0.8,0.8,2.1,0,3v0
	c-0.4,0.4-1,0.6-1.5,0.6c-0.5,0-1.1-0.2-1.5-0.6C34,60.5,34,59.2,34.8,58.3z M37.9,180.3c-0.4,0.4-1,0.6-1.5,0.6
	c-0.5,0-1.1-0.2-1.5-0.6c-0.8-0.8-0.8-2.2,0-3c0.8-0.8,2.2-0.8,3,0C38.8,178.2,38.8,179.5,37.9,180.3z M41.1,52.7
	c0.9-0.7,2.2-0.6,3,0.3c0.7,0.9,0.6,2.2-0.3,3c-0.4,0.3-0.9,0.5-1.3,0.5c-0.6,0-1.2-0.3-1.6-0.8C40.1,54.7,40.2,53.4,41.1,52.7z
	 M44.2,185.7c-0.4,0.5-1,0.8-1.6,0.8c-0.5,0-0.9-0.2-1.3-0.5c0,0,0,0,0,0c-0.9-0.7-1-2.1-0.3-3c0.7-0.9,2.1-1,3-0.3h0
	C44.8,183.5,44.9,184.8,44.2,185.7z M47.9,47.6c1-0.7,2.3-0.4,2.9,0.6c0.6,1,0.4,2.3-0.6,2.9c-0.4,0.2-0.8,0.4-1.2,0.4
	c-0.7,0-1.3-0.3-1.8-0.9C46.7,49.6,46.9,48.2,47.9,47.6z M51,190.5c-0.4,0.6-1.1,0.9-1.8,0.9c-0.4,0-0.8-0.1-1.2-0.4
	c-1-0.6-1.2-2-0.6-2.9c0.7-1,2-1.2,2.9-0.6C51.3,188.2,51.6,189.5,51,190.5z M55.1,43.2c1-0.5,2.3-0.2,2.8,0.9
	c0.5,1,0.2,2.3-0.9,2.9c-0.3,0.2-0.7,0.3-1,0.3c-0.8,0-1.5-0.4-1.9-1.1C53.7,45.1,54.1,43.8,55.1,43.2z M58.1,194.5
	c-0.4,0.7-1.1,1.1-1.9,1.1c-0.3,0-0.7-0.1-1-0.3c-1-0.5-1.4-1.8-0.9-2.8c0.5-1,1.8-1.4,2.8-0.9C58.3,192.2,58.7,193.5,58.1,194.5z
	 M65.7,197.9c-0.3,0.8-1.1,1.3-1.9,1.3c-0.3,0-0.5,0-0.8-0.2c-1.1-0.4-1.6-1.7-1.1-2.7c0.4-1.1,1.7-1.6,2.7-1.1h0
	C65.6,195.6,66.1,196.8,65.7,197.9z M58.3,116.2c-3.2-6.2-2.6-12.9,1.3-15c4-2.1,9.8,1.3,13,7.5c3.2,6.2,2.6,12.9-1.3,15
	C67.4,125.8,61.5,122.4,58.3,116.2z M73.5,200.4c-0.3,0.9-1.1,1.5-2,1.5c-0.2,0-0.4,0-0.6-0.1c-1.1-0.3-1.7-1.5-1.4-2.6
	c0.3-1.1,1.5-1.7,2.6-1.4C73.3,198.2,73.9,199.3,73.5,200.4z M81.6,202.2c-0.2,1-1.1,1.7-2.1,1.7c-0.1,0-0.3,0-0.4,0
	c-1.1-0.2-1.9-1.3-1.7-2.5c0.2-1.1,1.3-1.9,2.5-1.7C81.1,200,81.8,201.1,81.6,202.2z M87.7,205.1c-0.1,0-0.1,0-0.2,0
	c-1.2-0.1-2-1.1-1.9-2.3c0.1-1.2,1.1-2,2.3-1.9c1.2,0.1,2,1.1,1.9,2.3C89.7,204.3,88.8,205.1,87.7,205.1z M96,205.5
	C96,205.5,96,205.5,96,205.5c-1.2,0-2.1-1-2.1-2.1c0-1.2,0.9-2.1,2.1-2.1c1.2,0,2.1,0.9,2.1,2.1C98.1,204.6,97.1,205.5,96,205.5z
	 M104.4,205.1c-0.1,0-0.1,0-0.2,0c-1.1,0-2-0.8-2.1-1.9c-0.1-1.2,0.7-2.2,1.9-2.3c1.2-0.1,2.2,0.7,2.3,1.9
	C106.4,204,105.6,205,104.4,205.1z M112.8,203.9c-0.1,0-0.3,0-0.4,0c-1,0-1.9-0.7-2.1-1.7c-0.2-1.1,0.5-2.3,1.6-2.5
	c1.1-0.2,2.3,0.5,2.5,1.7C114.7,202.5,113.9,203.7,112.8,203.9z M121,201.8c-0.2,0.1-0.4,0.1-0.6,0.1c-0.9,0-1.7-0.6-2-1.5
	c-0.3-1.1,0.3-2.3,1.4-2.6c1.1-0.3,2.3,0.3,2.6,1.4C122.7,200.3,122.1,201.5,121,201.8z M95.8,157.7c-4.4,0.1-26.6,1.3-26.6-11.3
	c0-12.9,9.9-10.9,12.3-21c2.3-9.6,9.2-11.2,14-11.3v0h0.3h0.3v0c4.8,0.1,11.7,1.7,14,11.3c2.4,10.1,12.3,8.1,12.3,21
	C122.5,159,100.2,157.8,95.8,157.7z M120.5,124.8c-4-2.1-4.6-8.8-1.3-15c3.2-6.2,9.1-9.6,13-7.5c4,2.1,4.6,8.8,1.3,15
	C130.3,123.5,124.5,126.9,120.5,124.8z M129,199c-0.3,0.1-0.5,0.2-0.8,0.2c-0.8,0-1.6-0.5-1.9-1.3c-0.4-1.1,0.1-2.3,1.1-2.8
	c1.1-0.4,2.3,0.1,2.8,1.1C130.5,197.3,130,198.5,129,199z M136.6,195.3c-0.3,0.2-0.7,0.3-1,0.3c-0.8,0-1.5-0.4-1.9-1.1
	c-0.6-1-0.2-2.3,0.9-2.8c1-0.6,2.3-0.2,2.9,0.9C138,193.5,137.6,194.8,136.6,195.3z M140.8,48c0.6-1,1.9-1.2,2.9-0.6
	c1,0.6,1.2,2,0.6,2.9c-0.4,0.6-1.1,0.9-1.8,0.9c-0.4,0-0.8-0.1-1.2-0.4C140.4,50.3,140.2,49,140.8,48z M143.9,191
	c-0.4,0.2-0.8,0.4-1.2,0.4c-0.7,0-1.3-0.3-1.7-0.9c-0.6-1-0.4-2.3,0.6-2.9c1-0.7,2.3-0.4,2.9,0.6C145.1,189,144.8,190.3,143.9,191z
	 M147.6,52.8c0.7-0.9,2.1-1,3-0.3c0.9,0.7,1,2.1,0.3,3c-0.4,0.5-1,0.8-1.6,0.8c-0.5,0-0.9-0.1-1.3-0.5h0
	C147,55,146.8,53.7,147.6,52.8z M150.7,185.9c-0.4,0.3-0.9,0.5-1.3,0.5c-0.6,0-1.2-0.3-1.6-0.8c-0.7-0.9-0.6-2.2,0.3-3
	c0.9-0.7,2.2-0.6,3,0.3C151.7,183.9,151.6,185.2,150.7,185.9z M153.8,58.2c0.8-0.8,2.2-0.8,3,0c0.8,0.8,0.8,2.1,0,3
	c-0.4,0.4-1,0.6-1.5,0.6c-0.5,0-1.1-0.2-1.5-0.6C153,60.3,153,59,153.8,58.2z M156.9,180.2c-0.4,0.4-1,0.6-1.5,0.6
	c-0.5,0-1.1-0.2-1.5-0.6c-0.8-0.8-0.8-2.2,0-3c0.8-0.8,2.2-0.8,3,0C157.8,178.1,157.8,179.4,156.9,180.2
	C156.9,180.2,156.9,180.2,156.9,180.2z M159.5,64.1c0.9-0.7,2.2-0.6,3,0.3c0.7,0.9,0.6,2.2-0.3,3c-0.4,0.3-0.9,0.5-1.3,0.5
	c-0.6,0-1.2-0.3-1.6-0.8C158.5,66.2,158.6,64.9,159.5,64.1z M162.6,174c-0.4,0.5-1,0.8-1.6,0.8c-0.5,0-0.9-0.2-1.3-0.5
	c-0.9-0.7-1-2.1-0.3-3c0.7-0.9,2.1-1,3-0.3C163.2,171.8,163.4,173.1,162.6,174z M164.6,70.6c1-0.6,2.3-0.4,2.9,0.6
	c0.6,1,0.4,2.3-0.6,2.9c-0.4,0.2-0.8,0.4-1.2,0.4c-0.7,0-1.3-0.3-1.8-0.9h0C163.4,72.6,163.7,71.3,164.6,70.6z M167.7,167.2
	c-0.4,0.6-1.1,0.9-1.7,0.9c-0.4,0-0.8-0.1-1.2-0.4c-1-0.6-1.2-1.9-0.6-2.9c0.6-1,2-1.2,2.9-0.6C168,164.9,168.3,166.2,167.7,167.2z
	 M172,159.9c-0.4,0.7-1.1,1.1-1.9,1.1c-0.3,0-0.7-0.1-1-0.3c-1-0.5-1.4-1.8-0.9-2.8c0.5-1,1.8-1.4,2.8-0.9
	C172.2,157.6,172.6,158.9,172,159.9z M175.6,152.3c-0.3,0.8-1.1,1.3-2,1.3c-0.3,0-0.5,0-0.8-0.2c-1.1-0.4-1.6-1.7-1.1-2.8
	c0.4-1.1,1.7-1.6,2.8-1.1C175.6,150,176.1,151.2,175.6,152.3z M178.5,144.3c-0.3,0.9-1.1,1.5-2,1.5c-0.2,0-0.4,0-0.6-0.1
	c-1.1-0.3-1.7-1.5-1.4-2.6c0.3-1.1,1.5-1.7,2.6-1.4C178.2,142,178.8,143.2,178.5,144.3z M180.5,136.1c-0.2,1-1.1,1.7-2.1,1.7
	c-0.1,0-0.3,0-0.4,0c-1.2-0.2-1.9-1.3-1.7-2.5c0.2-1.1,1.3-1.9,2.5-1.7C180,133.8,180.8,135,180.5,136.1z M179.7,129.6
	c-0.1,0-0.1,0-0.2,0c-1.2-0.1-2-1.1-1.9-2.3c0.1-1.2,1.1-2,2.3-1.9c1.1,0.1,2,1.2,1.9,2.3C181.7,128.8,180.8,129.6,179.7,129.6z
	 M180.1,121.4c-1.2,0-2.1-1-2.1-2.1c0,0,0,0,0-0.1c0,0,0-0.1,0-0.1c0-1.2,0.9-2.1,2.1-2.1c1.2,0,2.1,0.9,2.1,2.1c0,0,0,0.1,0,0.1
	c0,0,0,0.1,0,0.1C182.2,120.4,181.2,121.4,180.1,121.4z"/>
</svg>
