<svg xmlns="http://www.w3.org/2000/svg" xmlns:xlink="http://www.w3.org/1999/xlink" preserveAspectRatio="xMidYMid" width="24" height="24" viewBox="0 0 24 24">
  <defs>
    <style>
      .cls-1 {
        fill: #fff;
        fill-rule: evenodd;
      }
    </style>
  </defs>
  <path d="M20.485,3.515 C18.219,1.248 15.205,-0.000 12.000,-0.000 C8.795,-0.000 5.781,1.248 3.515,3.515 C1.248,5.781 -0.000,8.795 -0.000,12.000 C-0.000,15.205 1.248,18.219 3.515,20.485 C5.781,22.751 8.795,24.000 12.000,24.000 C15.205,24.000 18.219,22.751 20.485,20.485 C22.752,18.219 24.000,15.205 24.000,12.000 C24.000,8.795 22.752,5.781 20.485,3.515 ZM14.673,12.220 L17.664,15.211 C17.905,15.452 17.905,15.845 17.664,16.086 L15.937,17.813 C15.820,17.930 15.665,17.994 15.499,17.994 C15.333,17.994 15.178,17.930 15.062,17.813 L12.071,14.822 C12.013,14.765 11.910,14.765 11.852,14.822 L8.861,17.813 C8.744,17.930 8.589,17.994 8.423,17.994 C8.258,17.994 8.102,17.930 7.986,17.813 L6.258,16.086 C6.142,15.969 6.077,15.814 6.077,15.648 C6.077,15.482 6.142,15.327 6.258,15.211 L9.249,12.220 C9.308,12.160 9.308,12.060 9.249,12.001 L6.132,8.884 C6.015,8.767 5.951,8.612 5.951,8.446 C5.951,8.280 6.015,8.125 6.132,8.009 L7.859,6.281 C7.976,6.164 8.131,6.100 8.297,6.100 C8.462,6.100 8.618,6.164 8.734,6.281 L11.852,9.398 C11.910,9.456 12.013,9.456 12.070,9.398 L15.188,6.281 C15.304,6.164 15.460,6.100 15.625,6.100 C15.791,6.100 15.946,6.164 16.063,6.281 L17.790,8.009 C17.907,8.125 17.971,8.280 17.971,8.446 C17.971,8.612 17.907,8.767 17.790,8.884 L14.673,12.001 C14.614,12.060 14.614,12.161 14.673,12.220 Z" class="cls-1"/>
</svg>
