<svg xmlns="http://www.w3.org/2000/svg" xmlns:xlink="http://www.w3.org/1999/xlink" preserveAspectRatio="xMidYMid" width="199.5" height="196.25" viewBox="0 0 199.5 196.25">
  <defs>
    <style>
      .cls-1 {
        fill: #b7006d;
        opacity: 0.41;
        fill-rule: evenodd;
      }
    </style>
  </defs>
  <path d="M188.064,137.369 C176.133,146.834 159.896,146.270 151.821,136.120 C143.741,125.972 146.846,110.062 158.762,100.587 C170.689,91.118 186.907,91.680 195.006,101.833 C203.083,111.980 199.980,127.894 188.064,137.369 ZM128.085,89.089 C114.902,80.402 112.467,60.822 122.658,45.363 C132.844,29.903 151.809,24.414 165.003,33.104 C178.186,41.791 180.627,61.377 170.433,76.835 C160.243,92.291 141.278,97.780 128.085,89.089 ZM79.148,65.635 C63.896,61.541 55.403,43.714 60.187,25.829 C64.973,7.936 81.225,-3.248 96.477,0.846 C111.733,4.941 120.226,22.768 115.440,40.660 C110.656,58.545 94.404,69.730 79.148,65.635 ZM26.500,78.136 C13.608,79.499 1.827,68.311 0.200,53.174 C-1.409,38.032 7.737,24.651 20.642,23.299 C33.545,21.939 45.326,33.123 46.950,48.262 C48.569,63.404 39.415,76.786 26.500,78.136 ZM45.997,87.471 C59.108,75.536 77.412,71.103 94.558,75.705 C111.706,80.308 125.345,93.317 130.744,110.220 L145.607,156.747 C149.677,169.491 144.916,183.385 133.887,190.944 C122.853,198.501 108.159,197.941 97.712,189.566 C80.076,175.427 57.332,169.321 35.010,172.727 L35.000,172.732 C21.766,174.750 8.762,167.871 2.979,155.800 C-2.794,143.732 0.018,129.318 9.903,120.320 L45.997,87.471 Z" class="cls-1"/>
</svg>
