<svg xmlns="http://www.w3.org/2000/svg" xmlns:xlink="http://www.w3.org/1999/xlink" preserveAspectRatio="xMidYMid" width="20" height="18" viewBox="0 0 20 18">
  <defs>
    <style>
      .cls-1 {
        fill: #909090;
        fill-rule: evenodd;
      }
    </style>
  </defs>
  <path d="M19.231,18.000 L0.769,18.000 C0.307,18.000 -0.000,17.700 -0.000,17.250 L-0.000,12.750 C-0.000,12.300 0.307,12.000 0.769,12.000 L2.307,12.000 C2.769,12.000 3.077,12.300 3.077,12.750 L3.077,14.625 C3.077,14.850 3.231,15.000 3.461,15.000 L16.538,15.000 C16.769,15.000 16.923,14.850 16.923,14.625 L16.923,12.750 C16.923,12.300 17.231,12.000 17.692,12.000 L19.231,12.000 C19.692,12.000 20.000,12.300 20.000,12.750 L20.000,17.250 C20.000,17.700 19.692,18.000 19.231,18.000 ZM14.077,6.825 C13.923,6.975 13.769,7.050 13.538,7.050 C13.307,7.050 13.154,6.975 13.000,6.825 L12.230,6.075 C11.923,5.850 11.538,6.075 11.538,6.375 L11.538,11.325 C11.538,11.775 11.231,12.075 10.769,12.075 L9.231,12.075 C8.769,12.075 8.461,11.775 8.461,11.325 L8.461,6.375 C8.461,6.000 8.000,5.850 7.769,6.075 L7.000,6.825 C6.846,6.975 6.692,7.050 6.461,7.050 C6.230,7.050 6.077,6.975 5.923,6.825 L4.846,5.775 C4.692,5.625 4.615,5.475 4.615,5.250 C4.615,5.025 4.692,4.875 4.846,4.725 L9.461,0.225 C9.615,0.075 9.846,-0.000 10.000,-0.000 C10.154,-0.000 10.384,0.075 10.538,0.225 L15.154,4.725 C15.307,4.875 15.384,5.025 15.384,5.250 C15.384,5.475 15.307,5.625 15.154,5.775 L14.077,6.825 Z" class="cls-1"/>
</svg>
